<?xml version="1.0" encoding="UTF-8" standalone="no"?>
<!-- Created with Inkscape (http://www.inkscape.org/) -->

<svg
   width="10463.151"
   height="3372.9543"
   viewBox="0 0 10463.151 3372.9543"
   version="1.1"
   id="svg1"
   sodipodi:docname="main.svg"
   inkscape:export-filename="main.svg"
   inkscape:export-xdpi="86.602676"
   inkscape:export-ydpi="86.602676"
   inkscape:version="1.4.3 (0d15f75, 2025-12-25)"
   xmlns:inkscape="http://www.inkscape.org/namespaces/inkscape"
   xmlns:sodipodi="http://sodipodi.sourceforge.net/DTD/sodipodi-0.dtd"
   xmlns="http://www.w3.org/2000/svg"
   xmlns:svg="http://www.w3.org/2000/svg">
  <sodipodi:namedview
     id="namedview1"
     pagecolor="#ffffff"
     bordercolor="#000000"
     borderopacity="0.25"
     inkscape:showpageshadow="false"
     inkscape:pageopacity="0.0"
     inkscape:pagecheckerboard="true"
     inkscape:deskcolor="#d1d1d1"
     inkscape:document-units="px"
     showborder="false"
     borderlayer="true"
     showguides="true"
     inkscape:zoom="0.056568543"
     inkscape:cx="7371.5882"
     inkscape:cy="1714.7339"
     inkscape:window-width="1920"
     inkscape:window-height="1057"
     inkscape:window-x="1912"
     inkscape:window-y="-8"
     inkscape:window-maximized="1"
     inkscape:current-layer="g1">
    <inkscape:page
       x="0"
       y="0"
       width="10463.151"
       height="3372.9543"
       id="page2"
       margin="0"
       bleed="0" />
  </sodipodi:namedview>
  <defs
     id="defs1" />
  <g
     id="g2"
     transform="translate(3.3533605e-6,2447.5922)">
    <g
       id="g1">
      <path
         style="display:inline;fill:#00ffff;stroke:#22002b;stroke-width:0.999999"
         d="M 88.697926,748.46581 H 353.29207 v 117.5981 58.7982 H 0.49999614 v -1083.766 H 1068.2302 v 49.4446 L 644.61239,-76.050988 601.85006,-56.006189 572.1116,-4.4980885 V 37.537112 l -10.22665,38.167196 -40.58494,10.8744 -66.01588,17.689002 -60.66141,35.0229 -39.59471,22.8601 h -73.89808 -52.11704 l -21.64725,37.4941 -54.8708,31.6796 -12.58394,46.9644 -33.40535,57.8601 v 119.6609 l -36.540103,136.3692 z"
         id="path13" />
      <path
         style="display:inline;fill:#00ffff;stroke:#22002b;stroke-width:0.999999"
         d="m 411.66234,559.84781 h 43.46683 v -28.348 z"
         id="path19" />
      <path
         style="display:inline;fill:#00ffff;stroke:#22002b;stroke-width:0.999999"
         d="m 455.12917,559.84781 h 50.08139 v -47.246 l -50.08139,18.898 z"
         id="path20" />
      <path
         style="display:inline;fill:#00ffff;stroke:#22002b;stroke-width:0.999999"
         d="m 505.21056,559.84781 h 35.90702 v -51.9708 l -35.90702,4.7248 z"
         id="path21" />
      <path
         style="display:inline;fill:#00ffff;stroke:#22002b;stroke-width:0.999999"
         d="M 541.11758,559.84781 Z"
         id="path22" />
      <path
         style="display:inline;fill:#00ffff;stroke:#22002b;stroke-width:0.999999"
         d="m 541.11758,559.84781 h 84.09903 l 0.94488,-78.429 -85.04391,26.4582 z"
         id="path23" />
      <path
         style="display:inline;fill:#00ffff;stroke:#22002b;stroke-width:0.999999"
         d="m 625.21661,559.84781 h 100.63483 v -113.3919 l -99.68995,34.9629 z"
         id="path24" />
      <path
         style="display:inline;fill:#00ffff;stroke:#22002b;stroke-width:0.999999"
         d="m 725.85144,559.84781 h 112.44662 v -130.3998 l -112.44662,17.0079 z"
         id="path25" />
      <path
         style="display:inline;fill:#00ffff;stroke:#22002b;stroke-width:0.999999"
         d="m 838.29806,559.84781 h 121.68907 v -134.7738 l -121.68907,4.374 z"
         id="path26" />
      <path
         style="display:inline;fill:#00ffff;stroke:#22002b;stroke-width:0.999999"
         d="M 959.98713,559.84781 H 1100.302 v -161.5008 l -140.31487,26.727 z"
         id="path27" />
      <path
         style="display:inline;fill:#00ffff;stroke:#22002b;stroke-width:0.999999"
         d="m 353.29207,924.86211 h 220.49462 v -60.1353 l -220.49462,1.3371 z"
         id="path28" />
      <path
         style="display:inline;fill:#00ffff;stroke:#22002b;stroke-width:0.999999"
         d="m 573.78669,924.86211 h 221.83143 v -62.8071 l -17.37222,-17.373 -31.92831,-8.5549 -33.17481,-8.8891 h -39.13096 l -40.33965,10.8091 h -41.17644 l -18.70904,26.6797 z"
         id="path29" />
      <path
         style="display:inline;fill:#00ffff;stroke:#22002b;stroke-width:0.999999"
         d="m 1100.302,559.84781 h 188.2553 l 3.7799,-181.4268 -192.0352,19.926 z"
         id="path30" />
      <path
         style="display:inline;fill:#00ffff;stroke:#22002b;stroke-width:0.999999"
         d="m 1288.5573,559.84781 h 249.4617 l 14.1736,-14.174 21.0202,-12.1361 27.7508,-7.4358 v -160.9096 l -308.6264,13.2287 z"
         id="path31" />
      <path
         style="display:inline;fill:#00ffff;stroke:#22002b;stroke-width:0.999999"
         d="m 1600.9636,526.10191 h 126.0412 l 42.3772,11.3548 31.0469,8.3191 h 51.3067 v -190.0327 l -250.772,9.4492 z"
         id="path32" />
      <path
         style="display:inline;fill:#00ffff;stroke:#22002b;stroke-width:0.999999"
         d="m 1446.6504,371.80681 -9.5925,-216.6724 h -82.8525 l -33.4084,-33.4083 V 93.663108 h 76.1708 37.4176 l 65.1924,-17.4683 32.1679,-32.1679 61.3228,-35.4046965 h 57.8026 109.5795 l 26.3864,-45.7024995 h 53.7936 l 11.105,392.823398 z"
         id="path33" />
      <path
         style="display:inline;fill:#00ffff;stroke:#22002b;stroke-width:0.999999"
         d="m 996.06801,286.09511 85.52539,18.7086 69.4892,2.6725 47.6538,-27.5127 34.5786,-34.5785 h -82.2324 -106.9065 -120.26985 z"
         id="path34" />
      <path
         id="rect34"
         style="display:inline;fill:#00ffff;stroke:#22002b;stroke-width:0.999999"
         d="m 1482.4932,-301.89209 h 1141.2283 v 149.6693 H 1482.4932 Z" />
      <path
         id="rect35"
         style="display:inline;fill:#00ffff;stroke:#22002b;stroke-width:1.00864"
         d="m 1840.631,-37.080588 h 783.0901 V 58.918208 H 1840.631 Z" />
      <path
         id="rect37"
         style="display:inline;fill:#00ffff;stroke:#22002b;stroke-width:0.999999"
         d="m 945.28817,-833.75179 h 122.94233 v 674.8479 H 945.28817 Z" />
      <path
         style="display:inline;fill:#00ffff;stroke:#22002b;stroke-width:0.999999"
         d="m 1068.2305,-261.80149 h 90.8704 l 11.7646,-43.9072 17.8008,-30.8315 v -90.9664 -130.9606 l 19.5927,-73.121 -19.3036,-72.0412 10.2353,-130.1224 -130.9602,0 z"
         id="path38"
         sodipodi:nodetypes="ccccccccccc" />
      <path
         style="display:inline;fill:#00ffff;stroke:#22002b;stroke-width:0.999999"
         d="m 1319.4606,-424.83409 -2.6725,-411.5905 h 120.2698 v 171.0504 l -29.8404,17.2286 -35.1667,60.9101 v 47.4769 l -18.7468,69.964 z"
         id="path39" />
      <path
         style="display:inline;fill:#00ffff;stroke:#22002b;stroke-width:0.999999"
         d="m 1437.0579,-836.42459 h 1192.009 v 64.1438 h -1192.009 z"
         id="path40" />
      <path
         style="display:inline;fill:#00ffff;stroke:#22002b;stroke-width:3.54483"
         d="M 797.89037,923.58951 H 3691.1913 v -57.5875 l -2893.30093,1.2805 z"
         id="path28-8" />
      <path
         id="rect1"
         style="display:inline;fill:#00ffff;stroke:#22002b;stroke-width:0.999999"
         d="m 881.29245,709.14701 h 206.93965 v 22.6787 H 881.29245 Z" />
      <path
         id="rect3"
         style="display:inline;fill:#ff0000;stroke:#22002b;stroke-width:0.999999"
         d="m 2153.3325,-384.74459 h 133.6331 v 82.8517 h -133.6331 z" />
      <path
         id="rect4"
         style="display:inline;fill:#00ffff;stroke:#22002b;stroke-width:0.999999"
         d="m 945.28817,-1745.1308 h 253.90253 v 911.37901 H 945.28817 Z" />
      <path
         id="rect5"
         style="display:inline;fill:#00ffff;stroke:#22002b;stroke-width:0.999999"
         d="m 1199.1907,-1739.7854 h 1884.2295 v 163.0326 H 1199.1907 Z" />
      <path
         id="rect6-8"
         style="display:inline;fill:#00ffff;stroke:#22002b;stroke-width:0.999999"
         d="m 2629.0669,-836.42499 h 272.612 v 69.4896 h -272.612 z" />
      <path
         id="rect19"
         style="display:inline;fill:#00ffff;stroke:#22002b;stroke-width:0.999999"
         d="m 1319.7399,707.25651 h 282.534 v 29.2929 h -282.534 z" />
      <path
         id="rect20"
         style="display:inline;fill:#00ffff;stroke:#22002b;stroke-width:0.999999"
         d="m 1851.736,423.77801 h 1836.9441 v 121.9978 H 1851.736 Z" />
      <path
         id="rect7"
         style="fill:#00ffff;stroke:#22002b;stroke-width:0.999999"
         d="m 2792.0999,-1181.198 h 109.5791 v 344.77341 h -109.5791 z" />
      <path
         id="rect8-24"
         style="fill:#00ffff;stroke:#22002b;stroke-width:0.999999"
         d="m 2901.6793,-1181.1988 h 430.2989 v 136.3064 h -430.2989 z" />
      <path
         id="rect9"
         style="fill:#00ffff;stroke:#22002b;stroke-width:0.68401"
         d="m 2511.3119,-1108.4364 h 280.946 v 63.702 h -280.946 z" />
      <path
         id="rect11"
         style="fill:#00ffff;stroke:#22002b;stroke-width:0.886508"
         d="m 3244.5059,-1044.9498 h 87.5286 v 801.18533 h -87.5286 z" />
      <path
         id="rect2-8"
         style="fill:#ffff00;stroke:#22002b;stroke-width:1.10422"
         d="m 3244.6147,-242.7691 h 87.3948 V 12.495483 h -87.3948 z" />
      <path
         id="rect12"
         style="fill:#00ffff;stroke:#22002b;stroke-width:1.17128"
         d="M 2624.8111,13.633221 H 5209.9413 V 58.836888 H 2624.8111 Z" />
      <path
         id="rect14"
         style="fill:#00ffff;stroke:#22002b;stroke-width:0.880445"
         d="m 5134.3628,-1139.1961 h 75.7137 v 827.87791 h -75.7137 z" />
      <path
         id="rect15"
         style="fill:#00ffff;stroke:#22002b;stroke-width:0.819806"
         d="M 5209.9272,-1139.2264 H 7198.24 v 109.7926 H 5209.9272 Z" />
      <path
         id="rect15-5"
         style="fill:#00ffff;stroke:#22002b;stroke-width:0.413911"
         d="m 7666.4887,-1138.2199 h 506.9121 v 109.779 h -506.9121 z" />
      <path
         id="rect16"
         style="fill:#00ffff;stroke:#22002b;stroke-width:0.999999"
         d="m 5440.5801,-2424.2404 h 98.273 v 847.4884 h -98.273 z" />
      <path
         id="rect17"
         style="fill:#00ffff;stroke:#22002b;stroke-width:0.999999"
         d="m 8014.5699,-1630.4996 h 158.7477 v 491.3632 h -158.7477 z" />
      <path
         id="rect18"
         style="fill:#00ffff;stroke:#22002b;stroke-width:0.999999"
         d="m 2518.1514,-772.27929 h 105.5698 v 470.3887 h -105.5698 z" />
      <path
         id="rect21"
         style="fill:#ffff00;stroke:#22002b;stroke-width:0.999999"
         d="m 3424.0992,-955.81989 h 364.7431 v 64.2554 h -364.7431 z" />
      <path
         id="rect22"
         style="fill:#ffff00;stroke:#22002b;stroke-width:0.999999"
         d="m 3932.4719,-1057.8717 h 241.9018 v 62.36561 h -241.9018 z" />
      <path
         id="rect23"
         style="fill:#ffff00;stroke:#22002b;stroke-width:0.999999"
         d="m 4443.8076,-1044.8924 h 489.0977 v 48.10811 h -489.0977 z" />
      <path
         id="rect24"
         style="fill:#00ffff;stroke:#22002b;stroke-width:0.999999"
         d="m 3083.4202,-1737.1125 h 2357.1599 v 160.3601 H 3083.4202 Z" />
      <path
         id="rect2"
         style="fill:#ffff00;stroke:#22002b;stroke-width:1.15575"
         d="m 5134.4404,-311.24039 h 75.4987 V 12.469727 h -75.4987 z" />
      <path
         id="rect6"
         style="fill:#ffff00;stroke:#22002b"
         d="m 7198.2402,-1138.2198 h 468.2487 v 108.7861 h -468.2487 z" />
      <path
         id="rect8"
         style="fill:#ffff00;stroke:#22002b;stroke-width:1.46846"
         d="m 2546.0149,-151.98857 h 77.4726 v 114.673735 h -77.4726 z" />
      <path
         id="rect10"
         style="fill:#00ffff;stroke:#22002b"
         d="m 2623.7214,-285.37979 h 620.7845 v 133.15712 h -620.7845 z" />
      <path
         id="rect36"
         style="fill:#00ffff;stroke:#22002b;stroke-width:0.327544"
         d="m 8172.981,-1630.8358 h 266.2323 v 147.0128 H 8172.981 Z" />
      <path
         id="rect38"
         style="fill:#00ffff;stroke:#22002b"
         d="m 6282.2017,-1764.7922 h 780.0271 v 112.6951 h -780.0271 z" />
      <path
         id="rect39"
         style="fill:#00ffff;stroke:#22002b"
         d="m 5538.853,-1884.1165 h 531.2167 v 59.6622 H 5538.853 Z" />
      <path
         style="fill:#00ffff;stroke:#22002b"
         d="m 8439.2129,-1630.8358 h 229.4743 l 58.6366,15.7116 h 175.5925 l 49.4118,28.5279 h 277.6251 l 88.1894,23.6303 h 154.8786 l 0,84.6967 -1038.3994,-5.5537 v 0 z"
         id="path41"
         sodipodi:nodetypes="cccccccccccc" />
      <path
         id="rect41"
         style="fill:#ffff00;stroke:#22002b"
         d="m 8952.3281,-1747.1145 h 149.462 v 160.5182 h -149.462 z" />
      <path
         id="rect42"
         style="fill:#ffff00;stroke:#22002b"
         d="m 9101.79,-1666.8553 h 72.9206 v 34.6456 H 9101.79 Z" />
      <path
         style="fill:#00ffff;stroke:#22002b"
         d="M 9473.0212,-1562.966 9737.5,-1744.4672 h 323.438 l 40.798,-23.5552 h 267.014 l 23.496,23.4964 h 70.906 l 0,266.3359 -990.1308,-0.079 z"
         id="path42"
         sodipodi:nodetypes="cccccccccc" />
      <path
         style="fill:#00ffff;stroke:#22002b"
         d="M 7914.0625,-1397.5922 Z"
         id="path43" />
      <path
         id="rect43"
         style="fill:#00ffff;stroke:#22002b"
         d="m 7798.4375,-1384.818 h 216.1324 v 71.6008 h -216.1324 z" />
      <path
         id="rect44"
         style="fill:#00ffff;stroke:#22002b"
         d="m 10463.152,-1744.526 h 654.036 v 266.4005 h -654.036 z" />
      <path
         id="rect45"
         style="fill:#ffff00;stroke:#22002b"
         d="m 10619.86,-2016.699 h 192.245 v 272.173 h -192.245 z" />
      <path
         id="rect46"
         style="fill:#ff00ff;stroke:#22002b;stroke-width:0.618849"
         d="m 2033.0624,-1263.0659 h 345.0957 v 150.6413 h -345.0957 z" />
      <path
         id="rect13"
         style="fill:#00ff00;stroke:#22002b;stroke-width:1.89154"
         d="m 2182.3999,-1575.8612 h 46.4207 v 312.7953 h -46.4207 z" />
      <path
         style="fill:#000080;stroke:#22002b"
         d="m 353.29207,866.0639 h 220.49462 l 9.35452,-14.6769 H 353.29207 Z"
         id="path14" />
      <path
         style="fill:#000080;stroke:#22002b;stroke-width:1.82092"
         d="M 784.95055,851.3871 H 3692.0532 v 15.513 H 820.32163 v -4.84514 z"
         id="path16" />
    </g>
  </g>
</svg>
