<?xml version="1.0" encoding="UTF-8" standalone="no"?>
<!-- Created with Inkscape (http://www.inkscape.org/) -->

<svg
   width="1000"
   height="1000"
   viewBox="0 0 1000 1000"
   version="1.1"
   id="svg1"
   inkscape:version="1.3.2 (091e20e, 2023-11-25, custom)"
   sodipodi:docname="level1.svg"
   xml:space="preserve"
   xmlns:inkscape="http://www.inkscape.org/namespaces/inkscape"
   xmlns:sodipodi="http://sodipodi.sourceforge.net/DTD/sodipodi-0.dtd"
   xmlns="http://www.w3.org/2000/svg"
   xmlns:svg="http://www.w3.org/2000/svg"><sodipodi:namedview
   id="namedview1"
   pagecolor="#ffffff"
   bordercolor="#000000"
   borderopacity="0.25"
   inkscape:showpageshadow="2"
   inkscape:pageopacity="0.0"
   inkscape:pagecheckerboard="0"
   inkscape:deskcolor="#d1d1d1"
   inkscape:document-units="px"
   inkscape:zoom="0.11313708"
   inkscape:cx="1807.5418"
   inkscape:cy="2413.002"
   inkscape:window-width="1308"
   inkscape:window-height="1120"
   inkscape:window-x="603"
   inkscape:window-y="0"
   inkscape:window-maximized="0"
   inkscape:current-layer="g1" /><defs
   id="defs1">

         
     </defs><g
   inkscape:label="Layer 1"
   inkscape:groupmode="layer"
>
   
         
         <g
   id="g4">
<path
     id="path2"
     style="fill:#d62969;fill-opacity:0.498039;stroke:#738823;stroke-width:2.95181"
     d="m 29.541016,1845.5293 -32.8300785,-6.6797 -0.4160156,106.1094 H 91.382812 Z" />
<path
     id="path21"
     style="fill:#d62969;fill-opacity:0.498039;stroke:#738823;stroke-width:2.95181"
     d="m -2.5273438,1644.5625 -0.7617187,194.2871 32.8300785,6.6797 -1.138672,-1.8301 -1.230469,-196.9961 z" />
<path
     id="path20"
     style="fill:#d62969;fill-opacity:0.498039;stroke:#738823;stroke-width:2.95181"
     d="m -1.7734375,1452.4004 -0.7539063,192.1621 29.6992188,2.1406 -0.0039,-0.5879 35.8125,-100.0273 -4.804688,-68.4785 z" />
</g>
<g
   id="g3">
<path
     id="path19"
     style="fill:#d62969;fill-opacity:0.498039;stroke:#738823;stroke-width:2.95181"
     d="m -0.8515625,1217.3086 -0.921875,235.0918 59.9492185,25.209 -0.134765,-1.9102 101.220704,-183.9258 z" />
<path
     id="path18"
     style="fill:#d62969;fill-opacity:0.498039;stroke:#738823;stroke-width:2.95181"
     d="M 112.375,994.08984 0,1000.2656 l -0.8515625,217.043 160.1132825,74.4648 0.0391,-0.072 96.32227,-41.9864 51.86523,-65.4511 -29.63672,-85.2071 -53.10156,-22.2285 -53.09961,-74.0937 z" />
</g>
         
         
         
         <g
   id="g2">
<path
     id="path15"
     style="fill:#d62969;fill-opacity:0.498039;stroke:#738823;stroke-width:2.95181"
     d="m -2.4707031,613.74219 0.1875,57.39062 41.5234371,-11.58008 -0.958984,-0.11914 z" />
<path
     id="path1"
     style="fill:#d62969;fill-opacity:0.498039;stroke:#738823;stroke-width:2.95181"
     d="m 58.052734,881.73828 -59.5585934,26.10938 0.2714844,82.53906 108.669925,-4.93945 z" />
<path
     id="path17"
     style="fill:#d62969;fill-opacity:0.498039;stroke:#738823;stroke-width:2.95181"
     d="m -1.7148438,844.23828 0.2089844,63.60938 59.5585934,-26.10938 -0.01172,-0.0234 8.611328,-35.68164 z" />
<path
     id="path16"
     style="fill:#d62969;fill-opacity:0.498039;stroke:#738823;stroke-width:2.95181"
     d="m 39.240234,659.55273 -41.5234371,11.58008 0.5683593,173.10547 68.3671878,1.79492 0.03125,-0.13086 39.517576,-62.97851 -1.23437,-90.14844 -37.046878,-29.63672 z" />
</g>
         
         
         
         
         
         
         
         <g
   id="g9">
<path
     id="path3"
     style="fill:#d62969;fill-opacity:0.498039;stroke:#738823;stroke-width:2.95181"
     d="m 1120.1992,2527.9766 -491.666,218.4199 0.0293,0.01 365.52734,376.6426 165.47656,27.168 117.3145,-169.1797 -41.9864,-339.5957 z" />
</g>
<g
   id="g8">
<path
     id="path46"
     style="fill:#d62969;fill-opacity:0.498039;stroke:#738823;stroke-width:2.95181"
     d="m 878.15039,2228.9316 -403.20898,258.9649 -17.98243,199.7051 171.57422,58.7949 491.666,-218.4199 -0.1484,-0.1465 -44.457,-148.1875 -144.48247,-171.6504 z" />
<path
     id="path47"
     style="fill:#d62969;fill-opacity:0.498039;stroke:#738823;stroke-width:2.95181"
     d="m 812.00781,2197.207 -317.24804,70.5996 -19.81836,220.0899 403.20898,-258.9649 -0.14062,0.055 z" />
<path
     id="path48"
     style="fill:#d62969;fill-opacity:0.498039;stroke:#738823;stroke-width:2.95181"
     d="m 633.99805,2236.8203 -49.99024,-88.0879 -79.6289,12.25 -9.61914,106.8242 z" />
<path
     id="path49"
     style="fill:#d62969;fill-opacity:0.498039;stroke:#738823;stroke-width:2.95181"
     d="m 706.10938,2140.8086 -13.75586,83.0254 119.65429,-26.627 -0.68164,-0.3281 -46.92578,-104.9668 -58.04101,49.3965 z" />
<path
     id="path50"
     style="fill:#d62969;fill-opacity:0.498039;stroke:#738823;stroke-width:2.95181"
     d="m 661.9043,2052.3965 -33.3418,6.1738 -44.45703,90.1465 -0.0977,0.016 49.99024,88.0879 58.35547,-12.9863 13.75586,-83.0254 z" />
</g>
<g
   id="g7">
<path
     id="path45"
     style="fill:#d62969;fill-opacity:0.498039;stroke:#738823;stroke-width:2.95181"
     d="m 456.95898,2687.6016 47.41993,-526.6192 -0.54102,0.084 -201.28906,-44.457 -0.0195,-0.023 -213.080081,445.0762 z" />
<path
     id="path44"
     style="fill:#d62969;fill-opacity:0.498039;stroke:#738823;stroke-width:2.95181"
     d="m -7.4101562,1956.0742 19.7597652,579.166 77.09961,26.4219 213.080081,-445.0762 -104.94532,-130.875 -81.5039,-27.1679 z" />
</g>
         
         
         
         
         
         <g
   id="g5">
<path
     id="path4"
     style="fill:#d62969;fill-opacity:0.498039;stroke:#738823;stroke-width:2.95181"
     d="m 365.75586,893.81445 -7.74219,-23.23047 -45.40625,2.61914 -4.36719,50.64454 9.31055,13.70117 z" />
<path
     id="path26"
     style="fill:#d62969;fill-opacity:0.498039;stroke:#738823;stroke-width:2.95181"
     d="m 365.75586,893.81445 -48.20508,43.73438 51.81445,76.24027 89.93946,89.0664 90.8125,-2.6192 22.70312,-49.7734 0.57422,-0.3145 -106.51758,-154.24801 -101.00586,-1.74023 z" />
<path
     id="path25"
     style="fill:#d62969;fill-opacity:0.498039;stroke:#738823;stroke-width:2.95181"
     d="m 592.14258,798.24609 -123.9668,43.53711 -1.01172,54.12305 -0.28711,-0.006 106.51758,154.24805 103.33789,-56.44336 20.95703,-148.44531 -25.32422,-41.04102 z" />
<path
     id="path24"
     style="fill:#d62969;fill-opacity:0.498039;stroke:#738823;stroke-width:2.95181"
     d="m 575.8418,729.28906 -106.98047,73.14258 0.0488,0.041 -0.73438,39.31054 123.9668,-43.53711 -1.85742,-0.13867 z" />
<path
     id="path23"
     style="fill:#d62969;fill-opacity:0.498039;stroke:#738823;stroke-width:2.95181"
     d="m 530.06055,676.11719 -132.51172,67.17969 71.3125,59.13476 106.98047,-73.14258 -0.40039,-1.91211 z" />
<path
     id="path22"
     style="fill:#d62969;fill-opacity:0.498039;stroke:#738823;stroke-width:2.95181"
     d="m 426.12305,580.67969 -107.4043,69.85547 26.19727,92.56054 h 52.39062 l 0.24219,0.20118 132.51172,-67.17969 -1.77344,-2.00391 -17.46289,-44.5332 z" />
</g>
         
         
         
         
         
         <g
   id="g6">
<path
     id="path5"
     style="fill:#d62969;fill-opacity:0.498039;stroke:#738823;stroke-width:2.95181"
     d="m 747.18555,884.73828 147.13672,-59.05859 -22.86524,-11.85547 -118.75586,13.97266 -5.24023,55.88476 z" />
<path
     id="path33"
     style="fill:#d62969;fill-opacity:0.498039;stroke:#738823;stroke-width:2.95181"
     d="m 929.55273,1024.2988 41.21289,-209.43747 -75.73242,11.1875 -0.71093,-0.36914 -147.13672,59.05859 -16.31446,62.6875 35.80079,60.25002 123.99414,34.0547 37.54882,-17.4629 z" />
<path
     id="path34"
     style="fill:#d62969;fill-opacity:0.498039;stroke:#738823;stroke-width:2.95181"
     d="m 1189.3438,1092.1348 -54.6856,17.0039 0.5059,0.7011 -4.3672,48.0274 9.6054,39.293 16.5918,-0.8731 10.4786,-47.1523 z" />
<path
     id="path35"
     style="fill:#d62969;fill-opacity:0.498039;stroke:#738823;stroke-width:2.95181"
     d="m 1197.0176,1073.8594 -115.2305,-372.61917 -21.7187,3.4336 -88.1934,110.02344 -1.10938,0.16406 -41.21289,209.43747 146.23247,3.461 58.873,81.3789 54.6856,-17.0039 6.9433,-18.0957 z" />
<path
     id="path36"
     style="fill:#d62969;fill-opacity:0.498039;stroke:#738823;stroke-width:2.95181"
     d="m 1558.3867,947.73242 -311.8887,-272.53906 -164.7109,26.04687 115.2305,372.61917 317.9883,-78.40823 z" />
<path
     id="path37"
     style="fill:#d62969;fill-opacity:0.498039;stroke:#738823;stroke-width:2.95181"
     d="m 1513.2598,583.29883 -138.8379,1.74609 -126.6153,89.94141 -1.3086,0.20703 311.8887,272.53906 52.6719,-57.93945 16.5918,-115.26172 -20.957,-129.23437 z" />
</g>
         
         
         
         
         
         
         <g
   id="g49">
<path
     id="path6"
     style="fill:#d62969;fill-opacity:0.498039;stroke:#738823;stroke-width:2.95181"
     d="m 932.01562,1349.8613 -45.49609,76.1114 0.6543,-0.033 42.78711,61.998 39.29492,-31.4355 z" />
<path
     id="path27"
     style="fill:#d62969;fill-opacity:0.498039;stroke:#738823;stroke-width:2.95181"
     d="m 750.4375,1616.5098 -32.66406,-77.0528 0.20703,-0.4238 -136.88281,48.7324 4.82226,51.2364 80.33399,69.8554 0.1289,0.021 z" />
<path
     id="path31"
     style="fill:#d62969;fill-opacity:0.498039;stroke:#738823;stroke-width:2.95181"
     d="m 876.89453,1618.9219 -125.06641,0.8691 -1.39062,-3.2812 -84.05469,92.3691 203.32617,33.1602 49.4336,-26.6172 z" />
<path
     id="path32"
     style="fill:#d62969;fill-opacity:0.498039;stroke:#738823;stroke-width:2.95181"
     d="m 876.89453,1618.9219 42.24805,96.5 64.08398,-34.5059 11.35156,-40.168 -51.51953,-41.914 -65.49023,20.084 z" />
<path
     id="path30"
     style="fill:#d62969;fill-opacity:0.498039;stroke:#738823;stroke-width:2.95181"
     d="m 659.80664,1401.791 -0.53906,1.4453 -87.32031,87.3203 9.15039,97.209 136.88281,-48.7324 14.41797,-29.5586 z" />
<path
     id="path29"
     style="fill:#d62969;fill-opacity:0.498039;stroke:#738823;stroke-width:2.95181"
     d="m 747.11914,1316.877 -0.53125,0.7851 -68.10937,34.0567 -18.67188,50.0722 72.5918,107.6836 37.76562,-77.4219 1.70508,-0.09 z" />
<path
     id="path28"
     style="fill:#d62969;fill-opacity:0.498039;stroke:#738823;stroke-width:2.95181"
     d="m 848.75391,1282.7344 -82.08203,5.2402 -19.55274,28.9024 24.75,115.0859 114.65039,-5.9902 45.49609,-76.1114 -1.18164,-3.3828 z" />
</g>
         
         
         
         <g
   id="g10">
<path
     id="path7"
     style="fill:#d62969;fill-opacity:0.498039;stroke:#738823;stroke-width:2.95181"
     d="m 1237.5215,2539.9102 -99.8262,-55.4043 88.5547,148.291 11.1152,-92.6172 z" />
<path
     id="path51"
     style="fill:#d62969;fill-opacity:0.498039;stroke:#738823;stroke-width:2.95181"
     d="m 1306.9902,2329.3594 -215.9121,-85.918 -16.7187,7.7715 -56.8067,32.1074 120.1426,201.1856 99.8262,55.4043 64.0586,-110.8711 4.9394,-98.7911 z" />
<path
     id="path52"
     style="fill:#d62969;fill-opacity:0.498039;stroke:#738823;stroke-width:2.95181"
     d="m 1328.6992,2270.5645 -166.7363,-60.0665 -70.8848,32.9434 215.9121,85.918 20.5215,-38.6289 z" />
<path
     id="path53"
     style="fill:#d62969;fill-opacity:0.498039;stroke:#738823;stroke-width:2.95181"
     d="m 1346.0352,2136.3691 -146.9512,28.4024 -37.0469,45.6914 -0.074,0.035 166.7363,60.0665 0.049,-0.8282 39.5157,-59.2734 17.289,-61.7461 z" />
</g>
         
         
         
         
         
         <g
   id="g14">
<path
     id="path110"
     style="fill:#d62969;fill-opacity:0.498039;stroke:#738823;stroke-width:2.95181"
     d="m 4905.1191,1817.4922 -0.1152,0.2734 -523.5957,232.1602 -0.7812,-0.291 -282.4239,394.2734 900.6524,-17.6602 v -582.9277 z" />
<path
     id="path41"
     style="fill:#d62969;fill-opacity:0.498039;stroke:#738823;stroke-width:2.95181"
     d="m 4998.8555,1595.4844 -93.7364,222.0078 93.7364,25.8281 z" />
</g>
<g
   id="g15">
<path
     id="path42"
     style="fill:#d62969;fill-opacity:0.498039;stroke:#738823;stroke-width:2.95181"
     d="m 4998.8555,2426.248 -900.6524,17.6602 -43.1855,60.2891 0.3789,0.1699 780.3223,612.4062 163.1367,-30.7168 z" />
<path
     id="path39"
     style="fill:#d62969;fill-opacity:0.498039;stroke:#738823;stroke-width:2.95181"
     d="m 4998.8555,3086.0566 -163.1367,30.7168 0.1308,0.1016 24.6973,390.2266 138.3086,4.9394 z" />
</g>
     <g
   id="g13">
<path
     id="path40"
     style="fill:#d62969;fill-opacity:0.498039;stroke:#738823;stroke-width:2.95181"
     d="m 3121.0117,1579.1406 -216.4726,411.7676 1150.4785,513.2891 325.6094,-454.5625 z" />
</g>
<g
   id="g12">
<path
     id="path109"
     style="fill:#d62969;fill-opacity:0.498039;stroke:#738823;stroke-width:2.95181"
     d="m 2291.9355,1269.4062 -338.7871,297.0352 951.3907,424.4668 216.4726,-411.7676 -829.0469,-309.6679 z" />
</g>
     <g
   id="g11">
<path
     id="path8"
     style="fill:#d62969;fill-opacity:0.498039;stroke:#738823;stroke-width:2.95181"
     d="m 2291.9355,1269.4062 -49.3652,-113.5449 0.3945,-0.7402 -558.0117,76.0586 122.9336,270.4531 145.2617,64.8086 z" />
<path
     id="path38"
     style="fill:#d62969;fill-opacity:0.498039;stroke:#738823;stroke-width:2.95181"
     d="m 2326.543,686.60156 -464.3203,54.33594 -177.8262,489.0176 0.5566,1.2246 558.0117,-76.0586 197.1875,-369.72852 z" />
</g>
         <g
   id="g16">
<path
     style="fill:#d62969;fill-opacity:0.498039;stroke:#738823;stroke-width:2.95181"
     d="m 1812.8261,2464.8507 -144.4828,175.3551 28.4026,186.4692 244.5093,76.5635 112.3754,-55.5703 29.6375,-85.2078 -6.1745,-172.8853 z"
     id="path9" />
</g>
         <g
   id="g17">
<path
     style="fill:#d62969;fill-opacity:0.498039;stroke:#738823;stroke-width:2.95181"
     d="m 2529.0653,2983.5067 -69.1542,93.852 -56.8052,98.7916 100.0266,151.8921 148.1874,-1.2349 75.3286,-146.9525 2.4698,-122.2546 z"
     id="path10" />
</g>
         <g
   id="g18">
<path
     style="fill:#d62969;fill-opacity:0.498039;stroke:#738823;stroke-width:2.95181"
     d="m 4191.2341,3305.8143 -191.4087,64.2145 -465.5555,-77.7983 -6.1745,-96.3219 202.5228,-124.7244 h 213.6369 l 263.0327,154.3619 z"
     id="path11" />
</g>
         
         
         
         <g
   id="g32">
<path
     id="path12"
     style="fill:#d62969;fill-opacity:0.498039;stroke:#738823;stroke-width:2.95181"
     d="m 3553.7949,5883.5 -2.2363,-0.459 -232.1602,-167.9472 -652.0254,-14.8184 -118.5488,123.4902 -103.7324,523.5957 360.4414,461.3633 z" />
</g>
<g
   id="g33">
<path
     id="path66"
     style="fill:#d62969;fill-opacity:0.498039;stroke:#738823;stroke-width:2.95181"
     d="m 4082.1309,5991.25 -2.0371,0.4609 -526.2989,-108.2109 -748.2617,925.2246 133.5176,170.9024 1156.7187,-11.0157 z" />
</g>
<g
   id="g34">
<path
     id="path67"
     style="fill:#d62969;fill-opacity:0.498039;stroke:#738823;stroke-width:2.95181"
     d="m 4710.1211,5980.0234 -2.6231,-0.5371 -19.6308,-125.5605 -605.7363,137.3242 13.6386,977.3613 283.8789,-2.7031 z" />
<path
     id="path68"
     style="fill:#d62969;fill-opacity:0.498039;stroke:#738823;stroke-width:2.95181"
     d="m 4710.1211,5980.0234 -330.4727,985.8848 634.0254,-6.0391 -4.9394,-918.7617 z" />
</g>
         
         
         
         
         
<g
   id="g31">
<path
     id="path13"
     style="fill:#d62969;fill-opacity:0.498039;stroke:#738823;stroke-width:2.95181"
     d="m 5048.4844,5768.0898 -84.2735,47.3575 -28.748,210.9433 117.625,17.1387 z" />
<path
     id="path56"
     style="fill:#d62969;fill-opacity:0.498039;stroke:#738823;stroke-width:2.95181"
     d="m 4954.2012,5156.4824 0.1972,0.4395 -121.4941,532.6523 131.4004,125.1856 -0.094,0.6875 84.2735,-47.3575 -10.1094,-604.9375 z" />
</g>
<g
   id="g30">
<path
     id="path55"
     style="fill:#d62969;fill-opacity:0.498039;stroke:#738823;stroke-width:2.95181"
     d="m 5029.3027,4620.2285 -291.9961,53.1699 216.8946,483.084 84.1738,6.6699 z" />
</g>

<g
   id="g29">
<path
     id="path54"
     style="fill:#d62969;fill-opacity:0.498039;stroke:#738823;stroke-width:2.95181"
     d="m 5022.998,4242.9551 -344.3359,-117.3477 -336.7715,87.8555 -88.9121,93.8516 49.3965,133.3691 434.6836,232.1602 0.248,0.5546 291.9961,-53.1699 z" />
<path
     id="path77"
     style="fill:#d62969;fill-opacity:0.498039;stroke:#738823;stroke-width:2.95181"
     d="m 4909.9102,3975.7227 0.033,0.6406 -227.2207,148.1855 -4.0606,1.0586 344.3359,117.3477 -3.7519,-224.5254 z" />
<path
     id="path43"
     style="fill:#d62969;fill-opacity:0.498039;stroke:#738823;stroke-width:2.95181"
     d="m 4895.125,3684.9277 14.7852,290.795 109.3359,42.707 -5.5723,-333.502 z" />
</g>
         
         
         
         
         
         
         
         
         
         <g
   id="g23">
<path
     id="path63"
     style="fill:#d62969;fill-opacity:0.498039;stroke:#738823;stroke-width:2.95181"
     d="m 961.57227,5082.8926 -1045.611332,-12.877 -34.511718,857.4805 741.99023,46.0547 z" />
</g>
     <g
   id="g24">
<path
     id="path64"
     style="fill:#d62969;fill-opacity:0.498039;stroke:#738823;stroke-width:2.95181"
     d="m 2401.7012,5367.709 -1490.99026,-150.8457 -287.27149,756.6875 690.48825,42.8574 1047.1914,-316.1328 79.0332,-212.4024 z" />
</g>
     <g
   id="g22">
<path
     id="path65"
     style="fill:#d62969;fill-opacity:0.498039;stroke:#738823;stroke-width:2.95181"
     d="m 2230.8984,4613.1445 -1129.3027,100.916 -190.88476,502.8028 1490.99026,150.8457 -1.0645,-3.3242 83.9727,-133.3692 0.1699,-0.037 z" />
</g>
     <g
   id="g20">
<path
     id="path73"
     style="fill:#d62969;fill-opacity:0.498039;stroke:#738823;stroke-width:2.95181"
     d="m 1364.4258,3824.0586 -479.93557,28.0762 -0.30468,0.7382 -938.521488,479.1387 -29.703124,738.0039 1045.611332,12.877 455.82613,-1200.6719 z" />
</g>
<g
   id="g19">
<path
     id="path62"
     style="fill:#d62969;fill-opacity:0.498039;stroke:#738823;stroke-width:2.95181"
     d="m 1165.752,3605.8281 -203.40044,58.1426 -77.86133,188.1641 479.93557,-28.0762 -198.6856,-218.1641 z" />
<path
     id="path61"
     style="fill:#d62969;fill-opacity:0.498039;stroke:#738823;stroke-width:2.95181"
     d="m 1062.0098,3423.1289 -99.65824,240.8418 203.40044,-58.1426 29.6269,-182.6992 z" />
</g>
<g
   id="g21">
<path
     id="path74"
     style="fill:#d62969;fill-opacity:0.498039;stroke:#738823;stroke-width:2.95181"
     d="m 1417.3984,3882.2207 -315.8027,831.8398 1129.3027,-100.916 -215.0078,-523.2363 -0.541,0.064 -138.3086,-98.7911 -459.3808,-108.6718 z" />
</g>
     <g
   id="g28">
<path
     id="path14"
     style="fill:#d62969;fill-opacity:0.498039;stroke:#738823;stroke-width:2.95181"
     d="m 3655.2852,4109.7246 -84.4532,543.6836 0.4844,-0.3242 256.8594,-24.6973 286.4941,-167.9453 19.7598,-251.918 -479.1406,-98.7929 z" />
<path
     id="path57"
     style="fill:#d62969;fill-opacity:0.498039;stroke:#738823;stroke-width:2.95181"
     d="m 3231.0996,3808.1348 148.2871,972.9043 191.4453,-127.6309 84.4532,-543.6836 -306.25,-355.6426 z" />
</g>
<g
   id="g26">
<path
     id="path58"
     style="fill:#d62969;fill-opacity:0.498039;stroke:#738823;stroke-width:2.95181"
     d="m 2351.7617,4050.125 355.586,1133.1602 537.957,-115.2754 133.3691,-286.4961 0.7129,-0.4746 -114.8691,-753.6465 -752.0762,-79.5196 z" />
</g>
<g
   id="g25">
<path
     id="path60"
     style="fill:#d62969;fill-opacity:0.498039;stroke:#738823;stroke-width:2.95181"
     d="m 2015.8906,4089.9082 468.8887,1141.0703 222.5684,-47.6933 -355.586,-1133.1602 -0.5215,0.332 z" />
</g>
<g
   id="g27">
<path
     id="path59"
     style="fill:#d62969;fill-opacity:0.498039;stroke:#738823;stroke-width:2.95181"
     d="m 2869.8965,3403.3711 -143.2481,118.5508 -192.6445,301.3144 -19.7578,123.4883 -1.8047,1.1484 752.0762,79.5196 -33.418,-219.2578 -0.6133,0.2812 -143.248,-192.6426 -24.6992,-108.6718 z" />
</g>
         <g
   id="g40">
<path
     style="fill:#ba22ff;fill-opacity:1;stroke:#d52868;stroke-width:2.95181;stroke-opacity:0.498039"
     d="m 1000.6903,3133.9246 59.3778,278.5516 137.0928,1.7464 -34.0549,-247.1163 z"
     id="path69" />
</g>
     <g
   id="g43">
<path
     style="fill:#22aaff;fill-opacity:1;stroke:#d52868;stroke-width:2.95181;stroke-opacity:0.498039"
     d="m 4869.8516,3524.6828 22.7033,152.3739 121.8117,-1.7464 -15.281,-143.6419 z"
     id="path70" />
</g>
     <g
   id="g48">
<path
     style="fill:#ba22ff;fill-opacity:1;stroke:#d52868;stroke-width:2.95181;stroke-opacity:0.498039"
     d="m 2450.1717,5498.5687 -71.0065,196.3483 157.4492,109.9057 118.5499,-112.9929 z"
     id="path71" />
</g>
     


<g
   id="g58">
<circle
     style="fill:#ece15e;stroke:#d52868;stroke-width:1.62023;stroke-opacity:0.498039"
     id="path72"
     cx="416.02875"
     cy="869.22089"
     r="24.189886" />
</g>
<g
   id="g57">
<circle
     style="fill:#ece15e;stroke:#d52868;stroke-width:1.62023;stroke-opacity:0.498039"
     id="path72-2"
     cx="816.64362"
     cy="1593.6627"
     r="24.189886" />
</g>
<g
   id="g56">
<circle
     style="fill:#ece15e;stroke:#d52868;stroke-width:1.62023;stroke-opacity:0.498039"
     id="path72-2-4"
     cx="3823.3535"
     cy="3046.1904"
     r="24.189886" />
</g>
<g
   id="g55">
<circle
     style="fill:#ece15e;stroke:#d52868;stroke-width:1.62023;stroke-opacity:0.498039"
     id="path72-2-4-90-1"
     cx="632.33777"
     cy="3951.064"
     r="24.189886" />
</g>
<g
   id="g54">
<circle
     style="fill:#ece15e;stroke:#d52868;stroke-width:1.62023;stroke-opacity:0.498039"
     id="path72-2-4-90"
     cx="1692.6525"
     cy="3918.2681"
     r="24.189886" />
</g>
<g
   id="g53">
<circle
     style="fill:#ece15e;stroke:#d52868;stroke-width:1.62023;stroke-opacity:0.498039"
     id="path72-2-4-9"
     cx="2818.9478"
     cy="1441.4124"
     r="24.189886" />
</g>
<g
   id="g52">
<circle
     style="fill:#ece15e;stroke:#d52868;stroke-width:1.62023;stroke-opacity:0.498039"
     id="path72-2-4-9-3"
     cx="1272.3574"
     cy="2143.1592"
     r="24.189886" />
</g>


<g
   id="g51">
<circle
     style="fill:#ece15e;stroke:#d52868;stroke-width:1.62023;stroke-opacity:0.498039"
     id="path72-2-4-9-3-1"
     cx="4835.4248"
     cy="5979.9482"
     r="24.189886" />
</g>
<g
   id="g50">
<circle
     style="fill:#ece15e;stroke:#d52868;stroke-width:1.62023;stroke-opacity:0.498039"
     id="path72-2-4-9-3-1-2"
     cx="2954.749"
     cy="5681.4561"
     r="24.189886" />
</g>

<g
   id="g36">
<path
     style="fill:#ba22ff;fill-opacity:1;stroke:#73eb50;stroke-width:2.95181;stroke-opacity:0.498039"
     d="m 1437.5001,1953.1251 -125,125 134.375,126.5625 120.3125,-145.3125 z"
     id="path75" />
</g>
<g
   id="g38">
<path
     style="fill:#ba22ff;fill-opacity:1;stroke:#73eb50;stroke-width:2.95181;stroke-opacity:0.498039"
     d="m 1713.1815,1638.2387 -125,125 134.375,126.5625 120.3125,-145.3125 z"
     id="path75-2" />
</g>
<g
   id="g37">
<path
     style="fill:#ba22ff;fill-opacity:1;stroke:#73eb50;stroke-width:2.95181;stroke-opacity:0.498039"
     d="m 1496.8751,1823.4376 -4.6875,178.125 162.5,-9.375 14.0625,-165.625 z"
     id="path76" />
</g>
<g
   id="g39">
<path
     style="fill:#ba22ff;fill-opacity:1;stroke:#73eb50;stroke-width:2.95181;stroke-opacity:0.498039"
     d="m 1761.8301,1509.5023 -4.6875,178.125 162.5,-9.375 14.0625,-165.625 z"
     id="path76-9" />
</g>
<g
   id="g45">
<path
     style="fill:#ba22ff;fill-opacity:1;stroke:#73eb50;stroke-width:2.95181;stroke-opacity:0.498039"
     d="m 4081.2502,4491.4065 -92.9688,125.7812 122.6563,102.3438 129.6875,-141.4063 z"
     id="path93" />
</g>
<g
   id="g46">
<path
     style="fill:#ba22ff;fill-opacity:1;stroke:#73eb50;stroke-width:2.95181;stroke-opacity:0.498039"
     d="m 4279.6877,4478.9065 -53.9063,138.2812 149.2188,84.375 67.1875,-189.8437 z"
     id="path94" />
</g>
<g
   id="g44">
<path
     style="fill:#ba22ff;fill-opacity:1;stroke:#73eb50;stroke-width:2.95181;stroke-opacity:0.498039"
     d="m 4130.4689,4507.8127 157.8125,-38.2812 -45.3125,-134.3751 -100.7812,-7.8125 z"
     id="path95" />
</g>
<g
   id="g47">
<path
     style="fill:#ba22ff;fill-opacity:1;stroke:#73eb50;stroke-width:2.95181;stroke-opacity:0.498039"
     d="m 4818.7502,5663.2815 -153.125,159.375 35.1563,42.9688 149.2187,-152.3438 z"
     id="path97" />
</g>

<g
   id="g35">
<path
     style="fill:#ba22ff;fill-opacity:1;stroke:#73eb50;stroke-width:2.95181;stroke-opacity:0.498039"
     d="m 927.52526,1490.4486 -43.64174,45.8514 13.81068,46.4039 44.7466,12.7058 45.85146,-43.0893 -4.97185,-48.6136 z"
     id="path99" />
</g>
<g
   id="g41">
<path
     style="fill:#ba22ff;fill-opacity:1;stroke:#73eb50;stroke-width:2.95181;stroke-opacity:0.498039"
     d="m 3061.5515,3501.2836 27.6214,-134.7922 128.1631,-59.6622 117.1146,58.5573 -34.2505,146.9457 -127.0583,36.4601 z"
     id="path100" />
</g>
<g
   id="g42">
<path
     style="fill:#ba22ff;fill-opacity:1;stroke:#73eb50;stroke-width:2.52679;stroke-opacity:0.498039"
     d="m 3334.2388,3404.2544 4.5941,-139.2134 179.1676,-21.4175 43.1841,132.3988 -73.5047,110.0078 h -134.1461 z"
     id="path101" />
</g>
     </g>
         </svg>
